HIERARCHY
ROOT Hips
{
	OFFSET 0.000000 0.000000 0.000000
	CHANNELS 6 Xposition Yposition Zposition Xrotation Yrotation Zrotation
	JOINT LeftUpLeg_virtual
	{
		OFFSET 0.000000 0.000000 0.000000
		CHANNELS 3 Xrotation Yrotation Zrotation
		JOINT LeftUpLeg
		{
			OFFSET 13.026900 -6.336304 -1.092800
			CHANNELS 3 Xrotation Yrotation Zrotation
			JOINT LeftLeg
			{
				OFFSET 0.524474 -46.096886 9.782700
				CHANNELS 3 Xrotation Yrotation Zrotation
				JOINT LeftFoot
				{
					OFFSET -0.524474 -53.427422 -12.948200
					CHANNELS 3 Xrotation Yrotation Zrotation
					JOINT LeftToeBase
					{
						OFFSET 0.192200 -14.009700 16.364100
						CHANNELS 3 Xrotation Yrotation Zrotation
						JOINT LeftToe_End
						{
							OFFSET -1.784700 -0.561700 9.474800
							CHANNELS 3 Xrotation Yrotation Zrotation
							End Site
							{
								OFFSET 0 0 0
							}
						}
					}
				}
			}
		}
	}
	JOINT RightUpLeg_virtual
	{
		OFFSET 0.000000 0.000000 0.000000
		CHANNELS 3 Xrotation Yrotation Zrotation
		JOINT RightUpLeg
		{
			OFFSET -12.883000 -6.336304 -1.092800
			CHANNELS 3 Xrotation Yrotation Zrotation
			JOINT RightLeg
			{
				OFFSET -0.524587 -46.096825 9.782800
				CHANNELS 3 Xrotation Yrotation Zrotation
				JOINT RightFoot
				{
					OFFSET 0.524587 -53.427383 -12.948300
					CHANNELS 3 Xrotation Yrotation Zrotation
					JOINT RightToeBase
					{
						OFFSET -0.192200 -14.009700 16.364100
						CHANNELS 3 Xrotation Yrotation Zrotation
						JOINT RightToe_End
						{
							OFFSET 1.784700 -0.561700 9.474800
							CHANNELS 3 Xrotation Yrotation Zrotation
							End Site
							{
								OFFSET 0 0 0
							}
						}
					}
				}
			}
		}
	}
	JOINT Spine_virtual
	{
		OFFSET 0.000000 0.000000 0.000000
		CHANNELS 3 Xrotation Yrotation Zrotation
		JOINT Spine
		{
			OFFSET 0.072000 7.257294 -0.789700
			CHANNELS 3 Xrotation Yrotation Zrotation
			JOINT Spine1
			{
				OFFSET 0.000000 12.508769 -0.658067
				CHANNELS 3 Xrotation Yrotation Zrotation
				JOINT Spine1_split
				{
					OFFSET 0.000000 12.508769 -0.658067
					CHANNELS 3 Xrotation Yrotation Zrotation
					JOINT Spine2
					{
						OFFSET 0.000000 12.508769 -0.658067
						CHANNELS 3 Xrotation Yrotation Zrotation
						JOINT Neck_virtual
						{
							OFFSET 0.000000 0.000000 0.000000
							CHANNELS 3 Xrotation Yrotation Zrotation
							JOINT Neck
							{
								OFFSET 0.000000 14.033295 7.520400
								CHANNELS 3 Xrotation Yrotation Zrotation
								JOINT Head
								{
									OFFSET 0.000000 8.198502 5.703100
									CHANNELS 3 Xrotation Yrotation Zrotation
									JOINT HeadTop_End
									{
										OFFSET 0.000000 17.760803 13.332701
										CHANNELS 3 Xrotation Yrotation Zrotation
										End Site
										{
											OFFSET 0 0 0
										}
									}
								}
							}
						}
						JOINT LeftShoulder_virtual
						{
							OFFSET 0.000000 0.000000 0.000000
							CHANNELS 3 Xrotation Yrotation Zrotation
							JOINT LeftShoulder
							{
								OFFSET 6.292450 5.785301 -0.669000
								CHANNELS 3 Xrotation Yrotation Zrotation
								JOINT LeftShoulder_split
								{
									OFFSET 6.292450 5.785301 -0.669000
									CHANNELS 3 Xrotation Yrotation Zrotation
									JOINT LeftArm
									{
										OFFSET 13.907140 -6.093903 1.965100
										CHANNELS 3 Xrotation Yrotation Zrotation
										JOINT LeftForeArm
										{
											OFFSET 34.140198 0.000000 0.000000
											CHANNELS 3 Xrotation Yrotation Zrotation
											JOINT LeftHand
											{
												OFFSET 40.960209 0.000000 0.000000
												CHANNELS 3 Xrotation Yrotation Zrotation
												End Site
												{
													OFFSET 0 0 0
												}
											}
										}
									}
								}
							}
						}
						JOINT RightShoulder_virtual
						{
							OFFSET 0.000000 0.000000 0.000000
							CHANNELS 3 Xrotation Yrotation Zrotation
							JOINT RightShoulder
							{
								OFFSET -6.292450 5.785301 -0.669000
								CHANNELS 3 Xrotation Yrotation Zrotation
								JOINT RightShoulder_split
								{
									OFFSET -6.292450 5.785301 -0.669000
									CHANNELS 3 Xrotation Yrotation Zrotation
									JOINT RightArm
									{
										OFFSET -13.907140 -6.093903 1.965100
										CHANNELS 3 Xrotation Yrotation Zrotation
										JOINT RightForeArm
										{
											OFFSET -34.140198 0.000000 0.000000
											CHANNELS 3 Xrotation Yrotation Zrotation
											JOINT RightHand
											{
												OFFSET -40.960209 0.000000 0.000000
												CHANNELS 3 Xrotation Yrotation Zrotation
												End Site
												{
													OFFSET 0 0 0
												}
											}
										}
									}
								}
							}
						}
					}
				}
			}
		}
	}
}
MOTION
Frames: 7
Frame Time: 0.03333333
7.545087 107.659676 134.227554 0.000000 0.000000 0.000000 22.837687 25.814833 -7.002698 -47.482737 7.324188 16.874507 41.669488 10.891513 -5.234729 5.285186 28.385751 -8.115743 -9.932725 0.931468 -1.651206 0.000000 0.000000 0.000000 23.920963 25.776536 -7.933022 -52.125972 -7.052690 -2.963760 31.730928 -5.334132 -6.068103 -0.485607 -6.899338 4.327733 2.341148 0.048946 -0.072306 0.000000 0.000000 0.000000 21.683738 22.490905 -6.411460 11.668614 -1.042953 2.971918 8.376225 -2.609613 0.619811 0.730251 3.709564 0.059838 0.000000 0.000000 0.000000 8.728497 -2.864624 0.491990 -6.243777 0.294744 2.971994 -20.546438 1.101166 1.984433 0.000000 0.000000 0.000000 8.971546 -2.938352 0.529698 0.615290 -9.173952 -6.746733 3.933577 -4.045641 1.164213 -26.344666 -23.001377 -31.467532 -0.056394 -25.614297 -0.045498 0.000000 0.000000 0.000000 9.284267 -2.587470 0.835956 2.053481 5.405380 4.624327 4.236115 2.923005 -0.904030 -16.773654 -8.642839 54.070250 0.933247 63.697948 -1.358173 0.000000 0.000000 0.000000 
8.130672 110.472046 137.016678 0.000000 0.000000 0.000000 23.298533 28.242224 -7.626453 -48.260880 7.538196 13.760092 35.047562 10.176651 -4.731395 7.617639 27.948417 -10.665181 -9.454770 0.400569 -0.125376 0.000000 0.000000 0.000000 24.293612 28.397551 -8.538290 -46.162609 -9.402975 -3.128061 25.649751 -5.901211 -6.375869 -0.967317 -8.196784 5.163355 1.410525 0.156550 0.185823 0.000000 0.000000 0.000000 21.909558 24.102126 -6.824540 11.158256 0.214961 2.897579 8.754836 -2.319756 0.671665 0.637897 4.128178 -0.028310 0.000000 0.000000 0.000000 8.968184 -2.597194 0.565462 -5.666270 -0.141165 2.300418 -22.982221 -1.823615 0.748033 0.000000 0.000000 0.000000 9.215971 -2.662162 0.436296 0.825687 -8.839144 -6.757518 4.273752 -4.094708 1.119410 -23.742987 -23.365328 -31.320768 0.258634 -24.508373 0.055993 0.000000 0.000000 0.000000 9.718483 -2.247045 0.874108 2.066016 5.777044 4.898810 3.827893 2.663727 -0.785553 -18.578328 -9.782349 55.264577 -0.012447 67.640320 -0.622866 0.000000 0.000000 0.000000 
8.791438 111.684647 139.821777 0.000000 0.000000 0.000000 23.284654 30.229010 -8.242219 -49.165238 7.564947 11.424623 29.644701 10.185497 -4.495813 9.857573 28.308641 -12.305364 -7.254044 0.156544 0.509520 0.000000 0.000000 0.000000 24.293212 30.628891 -9.100214 -41.228979 -11.597146 -3.159963 22.246775 -6.185001 -6.487175 -2.471749 -9.613046 5.997705 0.163436 0.269989 0.346575 0.000000 0.000000 0.000000 21.633209 25.799836 -7.263187 10.712493 1.351346 3.041292 9.044086 -1.989749 0.561907 0.408975 4.365507 -0.296503 0.000000 0.000000 0.000000 9.084625 -2.322983 0.509585 -5.331752 -0.431720 1.317507 -25.292532 -4.720368 -0.626169 0.000000 0.000000 0.000000 9.480792 -2.369224 0.241945 1.017139 -8.100887 -6.575365 4.187779 -4.104278 1.043686 -21.072800 -22.776010 -31.086653 0.610530 -25.513219 0.243113 0.000000 0.000000 0.000000 10.098920 -1.916818 0.755537 2.034342 6.319690 5.131460 3.401170 2.440063 -0.637993 -19.192746 -10.152650 56.750269 -0.988781 72.269781 0.243940 0.000000 0.000000 0.000000 
9.490674 111.157379 142.665939 0.000000 0.000000 0.000000 22.634084 31.734473 -8.763075 -50.273734 7.414866 9.785930 26.485778 10.580404 -4.369486 11.442839 29.141730 -12.522739 -4.843480 0.080766 0.724223 0.000000 0.000000 0.000000 23.976998 32.547409 -9.655601 -37.567024 -13.320103 -3.000678 22.443944 -6.198534 -6.346870 -5.500669 -11.214354 6.443504 -0.705724 0.376751 0.309309 0.000000 0.000000 0.000000 20.979770 27.781181 -7.801009 10.332100 2.385332 3.314185 9.135247 -1.552713 0.280348 0.324153 4.425363 -0.438371 0.000000 0.000000 0.000000 9.049508 -1.973652 0.300589 -5.264107 -0.761422 0.180951 -27.116372 -7.657612 -1.838838 0.000000 0.000000 0.000000 9.655196 -1.987598 -0.027575 1.184143 -7.027437 -6.119707 3.827708 -4.170534 1.081331 -18.570309 -21.261998 -30.803275 0.948614 -28.870113 0.458339 0.000000 0.000000 0.000000 10.335412 -1.513700 0.481751 1.958872 7.057258 5.210578 3.058528 2.283801 -0.549954 -18.858460 -9.589558 58.582048 -1.604823 76.736725 0.828809 0.000000 0.000000 0.000000 
10.219596 109.337845 145.880432 0.000000 0.000000 0.000000 21.537779 32.981604 -9.205819 -51.749833 7.109321 8.773020 26.013479 11.133094 -4.519777 11.824704 29.681297 -10.820444 -3.870421 0.036362 0.906850 0.000000 0.000000 0.000000 23.324020 33.972507 -10.203113 -34.931920 -14.443135 -2.537607 25.854819 -6.000844 -5.956717 -9.806192 -12.981714 6.395355 -1.195883 0.445707 0.063506 0.000000 0.000000 0.000000 20.205469 30.074890 -8.440046 9.966554 3.311034 3.544951 8.940654 -0.992261 -0.105627 0.470322 4.331720 -0.507952 0.000000 0.000000 0.000000 8.846160 -1.469499 -0.032207 -5.404572 -1.177280 -0.928173 -28.260427 -10.681404 -2.594685 0.000000 0.000000 0.000000 9.640887 -1.444680 -0.323364 1.304389 -5.742111 -5.373747 3.342988 -4.167650 0.980791 -16.470694 -19.214191 -30.490535 1.153260 -34.107509 0.610262 0.000000 0.000000 0.000000 10.301855 -0.985790 0.114704 1.834995 7.933201 5.095828 2.852508 2.230158 -0.517691 -18.102185 -8.494702 60.598251 -1.426888 80.382584 0.610988 0.000000 0.000000 0.000000 
11.114866 107.243912 149.395309 0.000000 0.000000 0.000000 20.258985 34.228404 -9.672968 -53.452623 6.878660 8.612373 27.848915 11.573441 -4.992859 11.636280 29.276667 -7.603828 -4.916037 -0.078240 1.335667 0.000000 0.000000 0.000000 22.536638 35.487163 -10.855406 -32.819537 -15.144503 -1.786105 31.053561 -5.618141 -5.459228 -14.569709 -14.692676 5.876953 -1.558087 0.497567 -0.366929 0.000000 0.000000 0.000000 19.556568 32.577543 -9.193925 9.506855 4.080708 3.552885 8.400817 -0.313299 -0.500298 0.692196 3.930726 -0.496770 0.000000 0.000000 0.000000 8.463228 -0.805548 -0.410195 -5.605908 -1.810764 -1.907123 -28.526671 -13.815417 -2.682659 0.000000 0.000000 0.000000 9.307469 -0.721653 -0.570968 1.361296 -4.469930 -4.419157 2.797064 -4.172437 0.688759 -14.880129 -17.049467 -30.049889 1.165732 -40.240821 0.669703 0.000000 0.000000 0.000000 9.894062 -0.336785 -0.273749 1.685658 8.757196 4.763021 2.830671 2.157582 -0.543489 -17.521998 -7.379394 62.578835 0.151669 83.122371 -1.063453 0.000000 0.000000 0.000000 
12.213806 105.704346 153.481857 0.000000 0.000000 0.000000 19.138257 35.548648 -10.279562 -55.351037 6.626329 8.964774 31.478108 11.597676 -5.610580 12.263395 27.815003 -4.707467 -5.674401 -0.128643 1.235415 0.000000 0.000000 0.000000 21.744652 36.920523 -11.568653 -30.666163 -15.742580 -0.815537 36.026902 -4.970403 -4.983055 -18.403487 -15.961102 5.099787 -2.073719 0.574392 -0.850340 0.000000 0.000000 0.000000 19.110152 35.079356 -10.075770 8.843973 4.649257 3.219604 7.520947 0.417197 -0.815148 1.033064 3.575048 -0.205981 0.000000 0.000000 0.000000 7.880091 -0.033641 -0.761689 -5.772123 -2.614937 -2.678657 -27.819811 -16.949394 -1.983907 0.000000 0.000000 0.000000 8.634446 0.096388 -0.730422 1.330195 -3.320973 -3.431687 2.289969 -4.199824 0.334406 -13.960624 -15.333220 -29.483526 1.024290 -46.111177 0.668541 0.000000 0.000000 0.000000 9.103983 0.367378 -0.608803 1.527688 9.296274 4.250962 3.040401 1.924189 -0.666770 -17.250940 -6.627693 64.429550 3.470307 85.116690 -4.544983 0.000000 0.000000 0.000000 
